<svg viewBox="0 0 1200 880" xmlns="http://www.w3.org/2000/svg" font-family="'Segoe UI', 'Helvetica Neue', Arial, sans-serif">
  <defs>
    <linearGradient id="bg" x1="0" y1="0" x2="0" y2="1">
      <stop offset="0" stop-color="#0d0f14"/>
      <stop offset="1" stop-color="#14171f"/>
    </linearGradient>
    <linearGradient id="experience" x1="0" y1="0" x2="1" y2="0">
      <stop offset="0" stop-color="#ff6fb5"/>
      <stop offset="1" stop-color="#ff8a8a"/>
    </linearGradient>
    <linearGradient id="cognitive" x1="0" y1="0" x2="1" y2="0">
      <stop offset="0" stop-color="#b070e0"/>
      <stop offset="1" stop-color="#8a7aff"/>
    </linearGradient>
    <linearGradient id="memory" x1="0" y1="0" x2="1" y2="0">
      <stop offset="0" stop-color="#d4a843"/>
      <stop offset="1" stop-color="#e0c068"/>
    </linearGradient>
    <linearGradient id="tools" x1="0" y1="0" x2="1" y2="0">
      <stop offset="0" stop-color="#3aa6e0"/>
      <stop offset="1" stop-color="#4ad0c0"/>
    </linearGradient>
    <linearGradient id="infra" x1="0" y1="0" x2="1" y2="0">
      <stop offset="0" stop-color="#76b900"/>
      <stop offset="1" stop-color="#9ad44a"/>
    </linearGradient>
    <filter id="glow" x="-20%" y="-20%" width="140%" height="140%">
      <feGaussianBlur stdDeviation="3" result="b"/>
      <feMerge><feMergeNode in="b"/><feMergeNode in="SourceGraphic"/></feMerge>
    </filter>
    <marker id="arrow" markerWidth="10" markerHeight="10" refX="5" refY="5" orient="auto">
      <path d="M0 0 L10 5 L0 10 z" fill="#4a5260"/>
    </marker>
  </defs>

  <rect width="1200" height="880" fill="url(#bg)"/>

  <g stroke="#ffffff" stroke-opacity="0.03">
    <line x1="0" y1="215" x2="1200" y2="215"/>
    <line x1="0" y1="430" x2="1200" y2="430"/>
    <line x1="0" y1="645" x2="1200" y2="645"/>
  </g>

  <!-- Title -->
  <text x="60" y="58" fill="#ffffff" font-size="30" font-weight="700" letter-spacing="3">KIRA</text>
  <text x="60" y="82" fill="#7d8694" font-size="14" letter-spacing="0.5">Multimodal AI VTuber &#xB7; System Architecture</text>
  <text x="1140" y="66" text-anchor="end" fill="#5a6270" font-size="12">local senses &#xB7; hybrid cloud brain</text>
  <rect x="856" y="76" width="284" height="26" rx="13" fill="#ee1515" fill-opacity="0.10" stroke="#ee1515" stroke-opacity="0.45"/>
  <text x="998" y="93" text-anchor="middle" fill="#ff9a9a" font-size="11" font-weight="600">&#9733; FireRed &#8212; beaten autonomously &#xB7; Jul 2026</text>

  <!-- ============ EXPERIENCE LAYER ============ -->
  <g>
    <rect x="60" y="110" width="1080" height="120" rx="12" fill="#ff6fb5" fill-opacity="0.06" stroke="#ff6fb5" stroke-opacity="0.35"/>
    <rect x="60" y="110" width="6" height="120" rx="3" fill="url(#experience)"/>
    <text x="84" y="136" fill="#ff8fc6" font-size="13" font-weight="700" letter-spacing="2">EXPERIENCE</text>
    <text x="84" y="155" fill="#8a93a3" font-size="10.5">perceives</text>
    <text x="84" y="171" fill="#8a93a3" font-size="10.5">&amp; presents</text>

    <g>
      <rect x="232" y="124" width="138" height="92" rx="9" fill="#1b1f29" stroke="#ff6fb5" stroke-opacity="0.4"/>
      <text x="301" y="158" text-anchor="middle" fill="#fff" font-size="13" font-weight="600">Voice</text>
      <text x="301" y="178" text-anchor="middle" fill="#8a93a3" font-size="10">Mic + VAD</text>
      <text x="301" y="193" text-anchor="middle" fill="#8a93a3" font-size="10">live capture</text>
    </g>
    <g>
      <rect x="382" y="124" width="138" height="92" rx="9" fill="#1b1f29" stroke="#ff6fb5" stroke-opacity="0.4"/>
      <text x="451" y="158" text-anchor="middle" fill="#fff" font-size="13" font-weight="600">Vision</text>
      <text x="451" y="178" text-anchor="middle" fill="#8a93a3" font-size="10">screen-watch</text>
      <text x="451" y="193" text-anchor="middle" fill="#8a93a3" font-size="10">context inject</text>
    </g>
    <g>
      <rect x="532" y="124" width="138" height="92" rx="9" fill="#1b1f29" stroke="#ff6fb5" stroke-opacity="0.4"/>
      <text x="601" y="158" text-anchor="middle" fill="#fff" font-size="13" font-weight="600">Live2D Avatar</text>
      <text x="601" y="178" text-anchor="middle" fill="#8a93a3" font-size="10">VTube Studio</text>
      <text x="601" y="193" text-anchor="middle" fill="#8a93a3" font-size="10">mood to face</text>
    </g>
    <g>
      <rect x="682" y="124" width="138" height="92" rx="9" fill="#1b1f29" stroke="#ff6fb5" stroke-opacity="0.4"/>
      <text x="751" y="158" text-anchor="middle" fill="#fff" font-size="13" font-weight="600">Captions</text>
      <text x="751" y="178" text-anchor="middle" fill="#8a93a3" font-size="10">word-synced</text>
      <text x="751" y="193" text-anchor="middle" fill="#8a93a3" font-size="10">OBS overlay</text>
    </g>
    <g>
      <rect x="832" y="124" width="138" height="92" rx="9" fill="#1b1f29" stroke="#ff6fb5" stroke-opacity="0.4"/>
      <text x="901" y="152" text-anchor="middle" fill="#fff" font-size="13" font-weight="600">Multi-Platform</text>
      <text x="901" y="172" text-anchor="middle" fill="#8a93a3" font-size="10">Twitch +</text>
      <text x="901" y="187" text-anchor="middle" fill="#8a93a3" font-size="10">YouTube chat</text>
    </g>
    <g>
      <rect x="982" y="124" width="138" height="92" rx="9" fill="#1b1f29" stroke="#ff6fb5" stroke-opacity="0.4"/>
      <text x="1051" y="152" text-anchor="middle" fill="#fff" font-size="13" font-weight="600">Dashboard</text>
      <text x="1051" y="172" text-anchor="middle" fill="#8a93a3" font-size="10">FastAPI +</text>
      <text x="1051" y="187" text-anchor="middle" fill="#8a93a3" font-size="10">WebSocket /state</text>
    </g>
  </g>

  <g stroke="#4a5260" stroke-width="1.5" fill="none">
    <path d="M601 230 L601 250" marker-end="url(#arrow)"/>
  </g>

  <!-- ============ COGNITIVE CORE ============ -->
  <g>
    <rect x="60" y="255" width="1080" height="130" rx="12" fill="#b070e0" fill-opacity="0.06" stroke="#b070e0" stroke-opacity="0.35"/>
    <rect x="60" y="255" width="6" height="130" rx="3" fill="url(#cognitive)"/>
    <text x="84" y="281" fill="#c79af0" font-size="13" font-weight="700" letter-spacing="2">COGNITIVE CORE</text>
    <text x="84" y="299" fill="#8a93a3" font-size="11">how she reasons</text>

    <g>
      <rect x="232" y="270" width="185" height="100" rx="9" fill="#1b1f29" stroke="#b070e0" stroke-opacity="0.45"/>
      <text x="324" y="302" text-anchor="middle" fill="#fff" font-size="13" font-weight="600">Hybrid Brain</text>
      <text x="324" y="320" text-anchor="middle" fill="#8a93a3" font-size="9.5">Groq triage &#xB7; Sonnet live</text>
      <text x="324" y="335" text-anchor="middle" fill="#8a93a3" font-size="9.5">Opus deep &#xB7; local fallback</text>
      <text x="324" y="350" text-anchor="middle" fill="#8a93a3" font-size="9.5">streaming LLM + TTS</text>
    </g>
    <g>
      <rect x="430" y="270" width="165" height="100" rx="9" fill="#1b1f29" stroke="#b070e0" stroke-opacity="0.45"/>
      <text x="512" y="302" text-anchor="middle" fill="#fff" font-size="13" font-weight="600">Arbiter</text>
      <text x="512" y="322" text-anchor="middle" fill="#8a93a3" font-size="9.5">turn lock &#xB7; P0/P1/P2</text>
      <text x="512" y="337" text-anchor="middle" fill="#8a93a3" font-size="9.5">interjection queue + TTL</text>
      <text x="512" y="352" text-anchor="middle" fill="#8a93a3" font-size="9.5">stop-word interrupt</text>
    </g>
    <g>
      <rect x="608" y="270" width="165" height="100" rx="9" fill="#1b1f29" stroke="#b070e0" stroke-opacity="0.45"/>
      <text x="690" y="302" text-anchor="middle" fill="#fff" font-size="13" font-weight="600">Emotional State</text>
      <text x="690" y="322" text-anchor="middle" fill="#8a93a3" font-size="9.5">mood drives tone</text>
      <text x="690" y="337" text-anchor="middle" fill="#8a93a3" font-size="9.5">+ avatar expression</text>
    </g>
    <g>
      <rect x="786" y="270" width="165" height="100" rx="9" fill="#1b1f29" stroke="#b070e0" stroke-opacity="0.45"/>
      <text x="868" y="302" text-anchor="middle" fill="#fff" font-size="13" font-weight="600">Prompt Assembly</text>
      <text x="868" y="322" text-anchor="middle" fill="#8a93a3" font-size="9.5">identity + rules</text>
      <text x="868" y="337" text-anchor="middle" fill="#8a93a3" font-size="9.5">+ memory context</text>
    </g>
    <g>
      <rect x="964" y="270" width="156" height="100" rx="9" fill="#1b1f29" stroke="#b070e0" stroke-opacity="0.45"/>
      <text x="1042" y="302" text-anchor="middle" fill="#fff" font-size="13" font-weight="600">Proactive Agency</text>
      <text x="1042" y="322" text-anchor="middle" fill="#8a93a3" font-size="9.5">silence escalate</text>
      <text x="1042" y="337" text-anchor="middle" fill="#8a93a3" font-size="9.5">curiosity prompts</text>
    </g>
  </g>

  <g stroke="#4a5260" stroke-width="1.5" fill="none">
    <path d="M400 385 L400 405" marker-end="url(#arrow)"/>
    <path d="M800 405 L800 385" marker-end="url(#arrow)"/>
  </g>

  <!-- ============ MEMORY ============ -->
  <g>
    <rect x="60" y="410" width="525" height="120" rx="12" fill="#d4a843" fill-opacity="0.06" stroke="#d4a843" stroke-opacity="0.35"/>
    <rect x="60" y="410" width="6" height="120" rx="3" fill="url(#memory)"/>
    <text x="84" y="436" fill="#e6c25e" font-size="13" font-weight="700" letter-spacing="2">MEMORY</text>
    <text x="84" y="454" fill="#8a93a3" font-size="11">what she remembers</text>

    <g>
      <rect x="200" y="424" width="96" height="92" rx="9" fill="#1b1f29" stroke="#d4a843" stroke-opacity="0.45"/>
      <text x="248" y="458" text-anchor="middle" fill="#fff" font-size="12" font-weight="600">facts</text>
      <text x="248" y="478" text-anchor="middle" fill="#8a93a3" font-size="10">distilled</text>
      <text x="248" y="492" text-anchor="middle" fill="#8a93a3" font-size="10">knowledge</text>
    </g>
    <g>
      <rect x="304" y="424" width="96" height="92" rx="9" fill="#1b1f29" stroke="#d4a843" stroke-opacity="0.45"/>
      <text x="352" y="458" text-anchor="middle" fill="#fff" font-size="12" font-weight="600">chatters</text>
      <text x="352" y="478" text-anchor="middle" fill="#8a93a3" font-size="10">per-viewer</text>
      <text x="352" y="492" text-anchor="middle" fill="#8a93a3" font-size="10">recall</text>
    </g>
    <g>
      <rect x="408" y="424" width="96" height="92" rx="9" fill="#1b1f29" stroke="#d4a843" stroke-opacity="0.45"/>
      <text x="456" y="458" text-anchor="middle" fill="#fff" font-size="12" font-weight="600">turns</text>
      <text x="456" y="478" text-anchor="middle" fill="#8a93a3" font-size="10">session</text>
      <text x="456" y="492" text-anchor="middle" fill="#8a93a3" font-size="10">history</text>
    </g>
    <g>
      <rect x="512" y="424" width="60" height="92" rx="9" fill="#1b1f29" stroke="#d4a843" stroke-opacity="0.45"/>
      <text x="542" y="456" text-anchor="middle" fill="#fff" font-size="11" font-weight="600">iden-</text>
      <text x="542" y="471" text-anchor="middle" fill="#fff" font-size="11" font-weight="600">tity</text>
      <text x="542" y="489" text-anchor="middle" fill="#8a93a3" font-size="9">flat JSON</text>
      <text x="542" y="502" text-anchor="middle" fill="#8a93a3" font-size="9">exact</text>
    </g>
  </g>

  <!-- ============ TOOLS ============ -->
  <g>
    <rect x="615" y="410" width="525" height="120" rx="12" fill="#3aa6e0" fill-opacity="0.06" stroke="#3aa6e0" stroke-opacity="0.35"/>
    <rect x="615" y="410" width="6" height="120" rx="3" fill="url(#tools)"/>
    <text x="639" y="436" fill="#5ec0f0" font-size="13" font-weight="700" letter-spacing="2">TOOLS</text>
    <text x="639" y="454" fill="#8a93a3" font-size="11">what she can do</text>

    <g>
      <rect x="740" y="424" width="72" height="92" rx="9" fill="#1b1f29" stroke="#3aa6e0" stroke-opacity="0.45"/>
      <text x="776" y="466" text-anchor="middle" fill="#fff" font-size="11" font-weight="600">Music</text>
      <text x="776" y="484" text-anchor="middle" fill="#8a93a3" font-size="9">yt-dlp/mpv</text>
    </g>
    <g>
      <rect x="820" y="424" width="72" height="92" rx="9" fill="#1b1f29" stroke="#3aa6e0" stroke-opacity="0.45"/>
      <text x="856" y="466" text-anchor="middle" fill="#fff" font-size="11" font-weight="600">Search</text>
      <text x="856" y="484" text-anchor="middle" fill="#8a93a3" font-size="9">web lookup</text>
    </g>
    <g>
      <rect x="900" y="424" width="72" height="92" rx="9" fill="#1b1f29" stroke="#3aa6e0" stroke-opacity="0.45"/>
      <text x="936" y="460" text-anchor="middle" fill="#fff" font-size="11" font-weight="600">VN</text>
      <text x="936" y="475" text-anchor="middle" fill="#fff" font-size="11" font-weight="600">Autopilot</text>
      <text x="936" y="492" text-anchor="middle" fill="#8a93a3" font-size="9">OCR + read</text>
    </g>
    <g>
      <rect x="980" y="424" width="72" height="92" rx="9" fill="#1b1f29" stroke="#3aa6e0" stroke-opacity="0.45"/>
      <text x="1016" y="458" text-anchor="middle" fill="#fff" font-size="11" font-weight="600">Chess</text>
      <text x="1016" y="475" text-anchor="middle" fill="#8a93a3" font-size="9">Lichess bot</text>
      <text x="1016" y="490" text-anchor="middle" fill="#8a93a3" font-size="9">Stockfish</text>
    </g>
    <g>
      <rect x="1060" y="424" width="72" height="92" rx="9" fill="#1b1f29" stroke="#ee1515" stroke-opacity="0.6"/>
      <text x="1096" y="456" text-anchor="middle" fill="#fff" font-size="11" font-weight="600">Pok&#233;mon</text>
      <text x="1096" y="473" text-anchor="middle" fill="#8a93a3" font-size="9">FireRed agent</text>
      <text x="1096" y="490" text-anchor="middle" fill="#e6c25e" font-size="9">&#9733; credits &#xB7; 2026</text>
    </g>
  </g>

  <g stroke="#4a5260" stroke-width="1.5" fill="none">
    <path d="M340 530 L340 560" marker-end="url(#arrow)"/>
    <path d="M880 530 L880 560" marker-end="url(#arrow)"/>
  </g>

  <!-- ============ INFRASTRUCTURE ============ -->
  <g>
    <rect x="60" y="565" width="1080" height="210" rx="12" fill="#76b900" fill-opacity="0.06" stroke="#76b900" stroke-opacity="0.35"/>
    <rect x="60" y="565" width="6" height="210" rx="3" fill="url(#infra)"/>
    <text x="84" y="591" fill="#9ad44a" font-size="13" font-weight="700" letter-spacing="2">INFRASTRUCTURE</text>
    <text x="84" y="611" fill="#8a93a3" font-size="10.5">what powers her</text>

    <!-- Row 1 -->
    <g>
      <rect x="200" y="580" width="154" height="90" rx="9" fill="#1b1f29" stroke="#76b900" stroke-opacity="0.45"/>
      <text x="277" y="612" text-anchor="middle" fill="#fff" font-size="12" font-weight="600">Groq</text>
      <text x="277" y="630" text-anchor="middle" fill="#8a93a3" font-size="10">Llama 3.1 8B instant</text>
      <text x="277" y="645" text-anchor="middle" fill="#8a93a3" font-size="10">triage + fast paths</text>
    </g>
    <g>
      <rect x="364" y="580" width="154" height="90" rx="9" fill="#1b1f29" stroke="#76b900" stroke-opacity="0.45"/>
      <text x="441" y="612" text-anchor="middle" fill="#fff" font-size="12" font-weight="600">Claude</text>
      <text x="441" y="630" text-anchor="middle" fill="#8a93a3" font-size="10">Sonnet live &#xB7; Opus deep</text>
      <text x="441" y="645" text-anchor="middle" fill="#8a93a3" font-size="10">Haiku extraction</text>
    </g>
    <g>
      <rect x="528" y="580" width="154" height="90" rx="9" fill="#1b1f29" stroke="#76b900" stroke-opacity="0.45"/>
      <text x="605" y="610" text-anchor="middle" fill="#fff" font-size="12" font-weight="600">Faster-Whisper</text>
      <text x="605" y="628" text-anchor="middle" fill="#8a93a3" font-size="10">distil-large-v3 x2</text>
      <text x="605" y="643" text-anchor="middle" fill="#8a93a3" font-size="10">mic + loopback &#xB7; CUDA</text>
    </g>
    <g>
      <rect x="692" y="580" width="154" height="90" rx="9" fill="#1b1f29" stroke="#76b900" stroke-opacity="0.45"/>
      <text x="769" y="612" text-anchor="middle" fill="#fff" font-size="12" font-weight="600">Azure TTS</text>
      <text x="769" y="630" text-anchor="middle" fill="#8a93a3" font-size="10">neural voice</text>
      <text x="769" y="645" text-anchor="middle" fill="#8a93a3" font-size="10">Edge-TTS fallback</text>
    </g>
    <g>
      <rect x="856" y="580" width="154" height="90" rx="9" fill="#1b1f29" stroke="#76b900" stroke-opacity="0.45"/>
      <text x="933" y="612" text-anchor="middle" fill="#fff" font-size="12" font-weight="600">Gemini</text>
      <text x="933" y="630" text-anchor="middle" fill="#8a93a3" font-size="10">vision &#xB7; screen reads</text>
      <text x="933" y="645" text-anchor="middle" fill="#8a93a3" font-size="10">screen understanding</text>
    </g>

    <!-- Row 2 -->
    <g>
      <rect x="200" y="682" width="154" height="78" rx="9" fill="#1b1f29" stroke="#76b900" stroke-opacity="0.45"/>
      <text x="277" y="710" text-anchor="middle" fill="#fff" font-size="12" font-weight="600">libmgba</text>
      <text x="277" y="728" text-anchor="middle" fill="#8a93a3" font-size="10">GBA emulator bridge</text>
      <text x="277" y="743" text-anchor="middle" fill="#8a93a3" font-size="10">live RAM state reads</text>
    </g>
    <g>
      <rect x="364" y="682" width="154" height="78" rx="9" fill="#1b1f29" stroke="#76b900" stroke-opacity="0.45"/>
      <text x="441" y="710" text-anchor="middle" fill="#fff" font-size="12" font-weight="600">Stockfish 17</text>
      <text x="441" y="728" text-anchor="middle" fill="#8a93a3" font-size="10">CPU only &#xB7; Elo-capped</text>
      <text x="441" y="743" text-anchor="middle" fill="#8a93a3" font-size="10">chess engine</text>
    </g>
    <g>
      <rect x="528" y="682" width="154" height="78" rx="9" fill="#1b1f29" stroke="#76b900" stroke-opacity="0.45"/>
      <text x="605" y="710" text-anchor="middle" fill="#fff" font-size="12" font-weight="600">ChromaDB</text>
      <text x="605" y="728" text-anchor="middle" fill="#8a93a3" font-size="10">vector memory</text>
      <text x="605" y="743" text-anchor="middle" fill="#8a93a3" font-size="10">sentence-transformers</text>
    </g>
    <g>
      <rect x="692" y="682" width="154" height="78" rx="9" fill="#1b1f29" stroke="#76b900" stroke-opacity="0.45"/>
      <text x="769" y="710" text-anchor="middle" fill="#fff" font-size="12" font-weight="600">VTS WebSocket</text>
      <text x="769" y="728" text-anchor="middle" fill="#8a93a3" font-size="10">avatar control</text>
      <text x="769" y="743" text-anchor="middle" fill="#8a93a3" font-size="10">hotkey API</text>
    </g>
    <g>
      <rect x="856" y="682" width="154" height="78" rx="9" fill="#1b1f29" stroke="#76b900" stroke-opacity="0.45"/>
      <text x="933" y="710" text-anchor="middle" fill="#fff" font-size="12" font-weight="600">Tesseract OCR</text>
      <text x="933" y="728" text-anchor="middle" fill="#8a93a3" font-size="10">local OCR fallback</text>
      <text x="933" y="743" text-anchor="middle" fill="#8a93a3" font-size="10">VN dialogue reads</text>
    </g>
  </g>

  <text x="600" y="818" text-anchor="middle" fill="#5a6270" font-size="12">Real-time audio pipeline &#xB7; hybrid-cloud brain &#xB7; vector memory &#xB7; multimodal fusion &#xB7; autonomous game agent &#xB7; WebSocket avatar &amp; captions &#xB7; agentic loops</text>
  <text x="600" y="840" text-anchor="middle" fill="#454c58" font-size="11" letter-spacing="1">built from scratch in Python</text>
</svg>
