<svg viewBox="0 0 1200 860" xmlns="http://www.w3.org/2000/svg" font-family="'Segoe UI', 'Helvetica Neue', Arial, sans-serif">
  <defs>
    <linearGradient id="bg" x1="0" y1="0" x2="0" y2="1">
      <stop offset="0" stop-color="#0d0f14"/>
      <stop offset="1" stop-color="#14171f"/>
    </linearGradient>
    <linearGradient id="experience" x1="0" y1="0" x2="1" y2="0">
      <stop offset="0" stop-color="#ff6fb5"/>
      <stop offset="1" stop-color="#ff8a8a"/>
    </linearGradient>
    <linearGradient id="cognitive" x1="0" y1="0" x2="1" y2="0">
      <stop offset="0" stop-color="#b070e0"/>
      <stop offset="1" stop-color="#8a7aff"/>
    </linearGradient>
    <linearGradient id="memory" x1="0" y1="0" x2="1" y2="0">
      <stop offset="0" stop-color="#d4a843"/>
      <stop offset="1" stop-color="#e0c068"/>
    </linearGradient>
    <linearGradient id="tools" x1="0" y1="0" x2="1" y2="0">
      <stop offset="0" stop-color="#3aa6e0"/>
      <stop offset="1" stop-color="#4ad0c0"/>
    </linearGradient>
    <linearGradient id="infra" x1="0" y1="0" x2="1" y2="0">
      <stop offset="0" stop-color="#76b900"/>
      <stop offset="1" stop-color="#9ad44a"/>
    </linearGradient>
    <filter id="glow" x="-20%" y="-20%" width="140%" height="140%">
      <feGaussianBlur stdDeviation="3" result="b"/>
      <feMerge><feMergeNode in="b"/><feMergeNode in="SourceGraphic"/></feMerge>
    </filter>
    <marker id="arrow" markerWidth="10" markerHeight="10" refX="5" refY="5" orient="auto">
      <path d="M0 0 L10 5 L0 10 z" fill="#4a5260"/>
    </marker>
  </defs>

  <rect width="1200" height="860" fill="url(#bg)"/>

  <!-- subtle grid texture -->
  <g stroke="#ffffff" stroke-opacity="0.03">
    <line x1="0" y1="215" x2="1200" y2="215"/>
    <line x1="0" y1="430" x2="1200" y2="430"/>
    <line x1="0" y1="645" x2="1200" y2="645"/>
  </g>

  <!-- Title -->
  <text x="60" y="58" fill="#ffffff" font-size="30" font-weight="700" letter-spacing="3">KIRA</text>
  <text x="60" y="82" fill="#7d8694" font-size="14" letter-spacing="0.5">Multimodal AI VTuber · System Architecture</text>
  <text x="1140" y="70" text-anchor="end" fill="#5a6270" font-size="12">local-first · hybrid cloud routing</text>

  <!-- ============ EXPERIENCE LAYER ============ -->
  <g>
    <rect x="60" y="110" width="1080" height="120" rx="12" fill="#ff6fb5" fill-opacity="0.06" stroke="#ff6fb5" stroke-opacity="0.35"/>
    <rect x="60" y="110" width="6" height="120" rx="3" fill="url(#experience)"/>
    <text x="84" y="136" fill="#ff8fc6" font-size="13" font-weight="700" letter-spacing="2">EXPERIENCE</text>
    <text x="84" y="155" fill="#8a93a3" font-size="10.5">perceives</text>
    <text x="84" y="171" fill="#8a93a3" font-size="10.5">&amp; presents</text>

    <g>
      <rect x="232" y="124" width="138" height="92" rx="9" fill="#1b1f29" stroke="#ff6fb5" stroke-opacity="0.4"/>
      <text x="301" y="158" text-anchor="middle" fill="#fff" font-size="13" font-weight="600">Voice</text>
      <text x="301" y="178" text-anchor="middle" fill="#8a93a3" font-size="10">Mic + VAD</text>
      <text x="301" y="193" text-anchor="middle" fill="#8a93a3" font-size="10">live capture</text>
    </g>
    <g>
      <rect x="382" y="124" width="138" height="92" rx="9" fill="#1b1f29" stroke="#ff6fb5" stroke-opacity="0.4"/>
      <text x="451" y="158" text-anchor="middle" fill="#fff" font-size="13" font-weight="600">Vision</text>
      <text x="451" y="178" text-anchor="middle" fill="#8a93a3" font-size="10">screen-watch</text>
      <text x="451" y="193" text-anchor="middle" fill="#8a93a3" font-size="10">context inject</text>
    </g>
    <g>
      <rect x="532" y="124" width="138" height="92" rx="9" fill="#1b1f29" stroke="#ff6fb5" stroke-opacity="0.4"/>
      <text x="601" y="158" text-anchor="middle" fill="#fff" font-size="13" font-weight="600">Live2D Avatar</text>
      <text x="601" y="178" text-anchor="middle" fill="#8a93a3" font-size="10">VTube Studio</text>
      <text x="601" y="193" text-anchor="middle" fill="#8a93a3" font-size="10">mood → face</text>
    </g>
    <g>
      <rect x="682" y="124" width="138" height="92" rx="9" fill="#1b1f29" stroke="#ff6fb5" stroke-opacity="0.4"/>
      <text x="751" y="158" text-anchor="middle" fill="#fff" font-size="13" font-weight="600">Captions</text>
      <text x="751" y="178" text-anchor="middle" fill="#8a93a3" font-size="10">word-synced</text>
      <text x="751" y="193" text-anchor="middle" fill="#8a93a3" font-size="10">OBS overlay</text>
    </g>
    <g>
      <rect x="832" y="124" width="138" height="92" rx="9" fill="#1b1f29" stroke="#ff6fb5" stroke-opacity="0.4"/>
      <text x="901" y="152" text-anchor="middle" fill="#fff" font-size="13" font-weight="600">Multi-Platform</text>
      <text x="901" y="172" text-anchor="middle" fill="#8a93a3" font-size="10">Twitch +</text>
      <text x="901" y="187" text-anchor="middle" fill="#8a93a3" font-size="10">YouTube chat</text>
    </g>
    <g>
      <rect x="982" y="124" width="138" height="92" rx="9" fill="#1b1f29" stroke="#ff6fb5" stroke-opacity="0.4"/>
      <text x="1051" y="158" text-anchor="middle" fill="#fff" font-size="13" font-weight="600">Dashboard</text>
      <text x="1051" y="178" text-anchor="middle" fill="#8a93a3" font-size="10">controls +</text>
      <text x="1051" y="193" text-anchor="middle" fill="#8a93a3" font-size="10">monitoring</text>
    </g>
  </g>

  <g stroke="#4a5260" stroke-width="1.5" fill="none">
    <path d="M601 230 L601 250" marker-end="url(#arrow)"/>
  </g>

  <!-- ============ COGNITIVE CORE ============ -->
  <g>
    <rect x="60" y="255" width="1080" height="130" rx="12" fill="#b070e0" fill-opacity="0.06" stroke="#b070e0" stroke-opacity="0.35"/>
    <rect x="60" y="255" width="6" height="130" rx="3" fill="url(#cognitive)"/>
    <text x="84" y="281" fill="#c79af0" font-size="13" font-weight="700" letter-spacing="2">COGNITIVE CORE</text>
    <text x="84" y="299" fill="#8a93a3" font-size="11">how she reasons</text>

    <g>
      <rect x="300" y="270" width="170" height="100" rx="9" fill="#1b1f29" stroke="#b070e0" stroke-opacity="0.45"/>
      <text x="385" y="302" text-anchor="middle" fill="#fff" font-size="13" font-weight="600">Hybrid Brain</text>
      <text x="385" y="322" text-anchor="middle" fill="#8a93a3" font-size="10">local Llama 3.1 8B</text>
      <text x="385" y="337" text-anchor="middle" fill="#8a93a3" font-size="10">+ cloud (Claude/GPT)</text>
      <text x="385" y="352" text-anchor="middle" fill="#8a93a3" font-size="10">for deep moments</text>
    </g>
    <g>
      <rect x="490" y="270" width="170" height="100" rx="9" fill="#1b1f29" stroke="#b070e0" stroke-opacity="0.45"/>
      <text x="575" y="302" text-anchor="middle" fill="#fff" font-size="13" font-weight="600">Emotional State</text>
      <text x="575" y="322" text-anchor="middle" fill="#8a93a3" font-size="10">mood drives tone</text>
      <text x="575" y="337" text-anchor="middle" fill="#8a93a3" font-size="10">+ avatar expression</text>
    </g>
    <g>
      <rect x="680" y="270" width="170" height="100" rx="9" fill="#1b1f29" stroke="#b070e0" stroke-opacity="0.45"/>
      <text x="765" y="302" text-anchor="middle" fill="#fff" font-size="13" font-weight="600">Prompt Assembly</text>
      <text x="765" y="322" text-anchor="middle" fill="#8a93a3" font-size="10">identity + rules</text>
      <text x="765" y="337" text-anchor="middle" fill="#8a93a3" font-size="10">+ memory context</text>
    </g>
    <g>
      <rect x="870" y="270" width="170" height="100" rx="9" fill="#1b1f29" stroke="#b070e0" stroke-opacity="0.45"/>
      <text x="955" y="302" text-anchor="middle" fill="#fff" font-size="13" font-weight="600">Proactive Agency</text>
      <text x="955" y="322" text-anchor="middle" fill="#8a93a3" font-size="10">silence → escalate</text>
      <text x="955" y="337" text-anchor="middle" fill="#8a93a3" font-size="10">curiosity prompts</text>
    </g>
  </g>

  <g stroke="#4a5260" stroke-width="1.5" fill="none">
    <path d="M385 385 L385 405" marker-end="url(#arrow)"/>
    <path d="M765 405 L765 385" marker-end="url(#arrow)"/>
  </g>

  <!-- ============ MEMORY ============ -->
  <g>
    <rect x="60" y="410" width="525" height="120" rx="12" fill="#d4a843" fill-opacity="0.06" stroke="#d4a843" stroke-opacity="0.35"/>
    <rect x="60" y="410" width="6" height="120" rx="3" fill="url(#memory)"/>
    <text x="84" y="436" fill="#e6c25e" font-size="13" font-weight="700" letter-spacing="2">MEMORY</text>
    <text x="84" y="454" fill="#8a93a3" font-size="11">what she remembers · ChromaDB</text>

    <g>
      <rect x="220" y="424" width="110" height="92" rx="9" fill="#1b1f29" stroke="#d4a843" stroke-opacity="0.45"/>
      <text x="275" y="458" text-anchor="middle" fill="#fff" font-size="12" font-weight="600">facts</text>
      <text x="275" y="478" text-anchor="middle" fill="#8a93a3" font-size="10">distilled</text>
      <text x="275" y="492" text-anchor="middle" fill="#8a93a3" font-size="10">knowledge</text>
    </g>
    <g>
      <rect x="338" y="424" width="110" height="92" rx="9" fill="#1b1f29" stroke="#d4a843" stroke-opacity="0.45"/>
      <text x="393" y="458" text-anchor="middle" fill="#fff" font-size="12" font-weight="600">chatters</text>
      <text x="393" y="478" text-anchor="middle" fill="#8a93a3" font-size="10">per-viewer</text>
      <text x="393" y="492" text-anchor="middle" fill="#8a93a3" font-size="10">recall</text>
    </g>
    <g>
      <rect x="456" y="424" width="110" height="92" rx="9" fill="#1b1f29" stroke="#d4a843" stroke-opacity="0.45"/>
      <text x="511" y="458" text-anchor="middle" fill="#fff" font-size="12" font-weight="600">turns</text>
      <text x="511" y="478" text-anchor="middle" fill="#8a93a3" font-size="10">session</text>
      <text x="511" y="492" text-anchor="middle" fill="#8a93a3" font-size="10">history</text>
    </g>
  </g>

  <!-- ============ TOOLS ============ -->
  <g>
    <rect x="615" y="410" width="525" height="120" rx="12" fill="#3aa6e0" fill-opacity="0.06" stroke="#3aa6e0" stroke-opacity="0.35"/>
    <rect x="615" y="410" width="6" height="120" rx="3" fill="url(#tools)"/>
    <text x="639" y="436" fill="#5ec0f0" font-size="13" font-weight="700" letter-spacing="2">TOOLS</text>
    <text x="639" y="454" fill="#8a93a3" font-size="11">what she can do</text>

    <g>
      <rect x="775" y="424" width="84" height="92" rx="9" fill="#1b1f29" stroke="#3aa6e0" stroke-opacity="0.45"/>
      <text x="817" y="466" text-anchor="middle" fill="#fff" font-size="11" font-weight="600">Music</text>
      <text x="817" y="484" text-anchor="middle" fill="#8a93a3" font-size="9">yt-dlp/mpv</text>
    </g>
    <g>
      <rect x="867" y="424" width="84" height="92" rx="9" fill="#1b1f29" stroke="#3aa6e0" stroke-opacity="0.45"/>
      <text x="909" y="466" text-anchor="middle" fill="#fff" font-size="11" font-weight="600">Search</text>
      <text x="909" y="484" text-anchor="middle" fill="#8a93a3" font-size="9">web lookup</text>
    </g>
    <g>
      <rect x="959" y="424" width="84" height="92" rx="9" fill="#1b1f29" stroke="#3aa6e0" stroke-opacity="0.45"/>
      <text x="1001" y="460" text-anchor="middle" fill="#fff" font-size="11" font-weight="600">VN</text>
      <text x="1001" y="476" text-anchor="middle" fill="#fff" font-size="11" font-weight="600">Autopilot</text>
      <text x="1001" y="494" text-anchor="middle" fill="#8a93a3" font-size="9">OCR + read</text>
    </g>
    <g>
      <rect x="1051" y="424" width="76" height="92" rx="9" fill="#1b1f29" stroke="#3aa6e0" stroke-opacity="0.45"/>
      <text x="1089" y="466" text-anchor="middle" fill="#fff" font-size="11" font-weight="600">Chat</text>
      <text x="1089" y="484" text-anchor="middle" fill="#8a93a3" font-size="9">post</text>
    </g>
  </g>

  <g stroke="#4a5260" stroke-width="1.5" fill="none">
    <path d="M320 530 L320 560" marker-end="url(#arrow)"/>
    <path d="M880 530 L880 560" marker-end="url(#arrow)"/>
  </g>

  <!-- ============ INFRASTRUCTURE ============ -->
  <g>
    <rect x="60" y="565" width="1080" height="130" rx="12" fill="#76b900" fill-opacity="0.06" stroke="#76b900" stroke-opacity="0.35"/>
    <rect x="60" y="565" width="6" height="130" rx="3" fill="url(#infra)"/>
    <text x="84" y="591" fill="#9ad44a" font-size="13" font-weight="700" letter-spacing="2">INFRASTRUCTURE</text>
    <text x="84" y="611" fill="#8a93a3" font-size="10.5">what powers her</text>

    <g>
      <rect x="232" y="580" width="160" height="100" rx="9" fill="#1b1f29" stroke="#76b900" stroke-opacity="0.45"/>
      <text x="312" y="616" text-anchor="middle" fill="#fff" font-size="12" font-weight="600">Llama 3.1 8B</text>
      <text x="312" y="636" text-anchor="middle" fill="#8a93a3" font-size="10">Q4_K_M · local</text>
      <text x="312" y="651" text-anchor="middle" fill="#8a93a3" font-size="10">llama-cpp + FA</text>
    </g>
    <g>
      <rect x="404" y="580" width="160" height="100" rx="9" fill="#1b1f29" stroke="#76b900" stroke-opacity="0.45"/>
      <text x="484" y="616" text-anchor="middle" fill="#fff" font-size="12" font-weight="600">Faster-Whisper</text>
      <text x="484" y="636" text-anchor="middle" fill="#8a93a3" font-size="10">large-v3 · STT</text>
      <text x="484" y="651" text-anchor="middle" fill="#8a93a3" font-size="10">CUDA</text>
    </g>
    <g>
      <rect x="576" y="580" width="160" height="100" rx="9" fill="#1b1f29" stroke="#76b900" stroke-opacity="0.45"/>
      <text x="656" y="616" text-anchor="middle" fill="#fff" font-size="12" font-weight="600">Azure TTS</text>
      <text x="656" y="636" text-anchor="middle" fill="#8a93a3" font-size="10">neural voice</text>
      <text x="656" y="651" text-anchor="middle" fill="#8a93a3" font-size="10">Edge-TTS fallback</text>
    </g>
    <g>
      <rect x="748" y="580" width="160" height="100" rx="9" fill="#1b1f29" stroke="#76b900" stroke-opacity="0.45"/>
      <text x="828" y="616" text-anchor="middle" fill="#fff" font-size="12" font-weight="600">Vision Model</text>
      <text x="828" y="636" text-anchor="middle" fill="#8a93a3" font-size="10">GPT-4o-mini</text>
      <text x="828" y="651" text-anchor="middle" fill="#8a93a3" font-size="10">screen + OCR</text>
    </g>
    <g>
      <rect x="920" y="580" width="160" height="100" rx="9" fill="#1b1f29" stroke="#76b900" stroke-opacity="0.45"/>
      <text x="1000" y="616" text-anchor="middle" fill="#fff" font-size="12" font-weight="600">VTS WebSocket</text>
      <text x="1000" y="636" text-anchor="middle" fill="#8a93a3" font-size="10">avatar control</text>
      <text x="1000" y="651" text-anchor="middle" fill="#8a93a3" font-size="10">hotkey API</text>
    </g>
  </g>

  <text x="600" y="730" text-anchor="middle" fill="#5a6270" font-size="12">
    Real-time audio pipeline · vector-memory architecture · multimodal fusion · WebSocket avatar &amp; caption control · agentic loops
  </text>
  <text x="600" y="752" text-anchor="middle" fill="#454c58" font-size="11" letter-spacing="1">built from scratch in Python</text>
</svg>
