<svg xmlns="http://www.w3.org/2000/svg" viewBox="0 0 960 1400" font-family="'Segoe UI', system-ui, -apple-system, sans-serif">
  <defs>
    <linearGradient id="bg" x1="0" y1="0" x2="0" y2="1">
      <stop offset="0%" stop-color="#0d0d14"/>
      <stop offset="100%" stop-color="#0a0a10"/>
    </linearGradient>
    <linearGradient id="cardBg" x1="0" y1="0" x2="0" y2="1">
      <stop offset="0%" stop-color="#16161f"/>
      <stop offset="100%" stop-color="#121219"/>
    </linearGradient>
  </defs>

  <!-- Background -->
  <rect width="960" height="1400" fill="url(#bg)"/>

  <!-- Header -->
  <text x="480" y="62" text-anchor="middle" fill="#e8e0d0" font-size="38" font-weight="300" letter-spacing="16">KIRA</text>
  <text x="480" y="88" text-anchor="middle" fill="#7a7572" font-size="11" letter-spacing="6" font-weight="400">SYSTEM ARCHITECTURE</text>
  <text x="480" y="106" text-anchor="middle" fill="#5a5552" font-size="9" letter-spacing="2">local-first AI agent</text>

  <!-- ═══════════════════════════════════ EXPERIENCE ═══════════════════════════════════ -->
  <text x="40" y="148" fill="#7a7572" font-size="10" letter-spacing="4" font-weight="600">EXPERIENCE</text>
  <line x1="40" y1="155" x2="920" y2="155" stroke="#2a2530" stroke-width="0.5"/>

  <!-- Voice Chat -->
  <rect x="40" y="168" width="210" height="130" rx="8" fill="url(#cardBg)" stroke="#2a2530" stroke-width="1"/>
  <circle cx="62" cy="190" r="14" fill="#b070e0" opacity="0.15"/>
  <text x="62" y="195" text-anchor="middle" fill="#b070e0" font-size="11" font-weight="700">V</text>
  <text x="84" y="187" fill="#e8e0d0" font-size="13" font-weight="600">Voice Chat</text>
  <text x="84" y="201" fill="#6a6562" font-size="9">Real-time conversation</text>
  <text x="56" y="226" fill="#8a8580" font-size="9">•</text>
  <text x="64" y="226" fill="#9a9590" font-size="9"><tspan font-weight="600" fill="#c0b8b0">Mic capture</tspan>  →  AudioWorklet</text>
  <text x="56" y="246" fill="#8a8580" font-size="9">•</text>
  <text x="64" y="246" fill="#9a9590" font-size="9"><tspan font-weight="600" fill="#c0b8b0">Client VAD</tspan>  +  adaptive EOU</text>
  <text x="56" y="266" fill="#8a8580" font-size="9">•</text>
  <text x="64" y="266" fill="#9a9590" font-size="9"><tspan font-weight="600" fill="#c0b8b0">Self-hearing</tspan> prevention</text>

  <!-- Vision Agent -->
  <rect x="270" y="168" width="210" height="130" rx="8" fill="url(#cardBg)" stroke="#2a2530" stroke-width="1"/>
  <circle cx="292" cy="190" r="14" fill="#50b8a0" opacity="0.15"/>
  <text x="292" y="195" text-anchor="middle" fill="#50b8a0" font-size="11" font-weight="700">E</text>
  <text x="314" y="187" fill="#e8e0d0" font-size="13" font-weight="600">Vision Agent</text>
  <text x="314" y="201" fill="#6a6562" font-size="9">Screen + camera perception</text>
  <rect x="430" y="177" width="38" height="18" rx="9" fill="#50b8a0" opacity="0.12"/>
  <text x="449" y="189" text-anchor="middle" fill="#50b8a0" font-size="8" font-weight="600">VLM</text>
  <text x="286" y="226" fill="#8a8580" font-size="9">•</text>
  <text x="294" y="226" fill="#9a9590" font-size="9"><tspan font-weight="600" fill="#c0b8b0">Screen share</tspan>  →  capture</text>
  <text x="286" y="246" fill="#8a8580" font-size="9">•</text>
  <text x="294" y="246" fill="#9a9590" font-size="9"><tspan font-weight="600" fill="#c0b8b0">Scene diffing</tspan>  →  context buffer</text>
  <text x="286" y="266" fill="#8a8580" font-size="9">•</text>
  <text x="294" y="266" fill="#9a9590" font-size="9"><tspan font-weight="600" fill="#c0b8b0">Vision heartbeats</tspan> (75–120s)</text>

  <!-- Twitch Integration -->
  <rect x="500" y="168" width="210" height="130" rx="8" fill="url(#cardBg)" stroke="#2a2530" stroke-width="1"/>
  <circle cx="522" cy="190" r="14" fill="#e06850" opacity="0.15"/>
  <text x="522" y="195" text-anchor="middle" fill="#e06850" font-size="11" font-weight="700">T</text>
  <text x="544" y="187" fill="#e8e0d0" font-size="13" font-weight="600">Twitch</text>
  <text x="544" y="201" fill="#6a6562" font-size="9">Live platform integration</text>
  <rect x="638" y="177" width="60" height="18" rx="9" fill="#e06850" opacity="0.12"/>
  <text x="668" y="189" text-anchor="middle" fill="#e06850" font-size="8" font-weight="600">STREAM</text>
  <text x="516" y="226" fill="#8a8580" font-size="9">•</text>
  <text x="524" y="226" fill="#9a9590" font-size="9"><tspan font-weight="600" fill="#c0b8b0">Chat listener</tspan>  →  input queue</text>
  <text x="516" y="246" fill="#8a8580" font-size="9">•</text>
  <text x="524" y="246" fill="#9a9590" font-size="9"><tspan font-weight="600" fill="#c0b8b0">Poll creation</tspan>  +  song requests</text>
  <text x="516" y="266" fill="#8a8580" font-size="9">•</text>
  <text x="524" y="266" fill="#9a9590" font-size="9"><tspan font-weight="600" fill="#c0b8b0">Contextual</tspan> chat responses</text>

  <!-- Dashboard -->
  <rect x="730" y="168" width="210" height="130" rx="8" fill="url(#cardBg)" stroke="#2a2530" stroke-width="1"/>
  <circle cx="752" cy="190" r="14" fill="#d4a843" opacity="0.15"/>
  <text x="752" y="195" text-anchor="middle" fill="#d4a843" font-size="11" font-weight="700">D</text>
  <text x="774" y="187" fill="#e8e0d0" font-size="13" font-weight="600">Dashboard</text>
  <text x="774" y="201" fill="#6a6562" font-size="9">Real-time GUI controls</text>
  <rect x="878" y="177" width="50" height="18" rx="9" fill="#d4a843" opacity="0.12"/>
  <text x="903" y="189" text-anchor="middle" fill="#d4a843" font-size="8" font-weight="600">GUI</text>
  <text x="746" y="226" fill="#8a8580" font-size="9">•</text>
  <text x="754" y="226" fill="#9a9590" font-size="9"><tspan font-weight="600" fill="#c0b8b0">State monitoring</tspan> panel</text>
  <text x="746" y="246" fill="#8a8580" font-size="9">•</text>
  <text x="754" y="246" fill="#9a9590" font-size="9"><tspan font-weight="600" fill="#c0b8b0">Vision preview</tspan> window</text>
  <text x="746" y="266" fill="#8a8580" font-size="9">•</text>
  <text x="754" y="266" fill="#9a9590" font-size="9"><tspan font-weight="600" fill="#c0b8b0">Mode toggles</tspan>  +  controls</text>

  <!-- Connector -->
  <line x1="480" y1="298" x2="480" y2="326" stroke="#2a2530" stroke-width="1" stroke-dasharray="4,3"/>
  <rect x="398" y="308" width="164" height="22" rx="4" fill="#1a1a24" stroke="#2a2530" stroke-width="1"/>
  <text x="480" y="323" text-anchor="middle" fill="#6a6562" font-size="8" letter-spacing="2" font-weight="600">INPUT QUEUE</text>

  <!-- ═══════════════════════════════════ COGNITIVE CORE ═══════════════════════════════════ -->
  <text x="40" y="362" fill="#7a7572" font-size="10" letter-spacing="4" font-weight="600">COGNITIVE CORE</text>
  <line x1="40" y1="369" x2="920" y2="369" stroke="#2a2530" stroke-width="0.5"/>

  <!-- AI Core -->
  <rect x="40" y="382" width="210" height="130" rx="8" fill="url(#cardBg)" stroke="#2a2530" stroke-width="1"/>
  <circle cx="62" cy="404" r="14" fill="#b070e0" opacity="0.15"/>
  <text x="62" y="409" text-anchor="middle" fill="#b070e0" font-size="11" font-weight="700">C</text>
  <text x="84" y="401" fill="#e8e0d0" font-size="13" font-weight="600">AI Core</text>
  <text x="84" y="415" fill="#6a6562" font-size="9">Cortex — LLM + STT + TTS</text>
  <rect x="192" y="391" width="48" height="18" rx="9" fill="#b070e0" opacity="0.12"/>
  <text x="216" y="403" text-anchor="middle" fill="#b070e0" font-size="8" font-weight="600">BRAIN</text>
  <text x="56" y="440" fill="#8a8580" font-size="9">•</text>
  <text x="64" y="440" fill="#9a9590" font-size="9"><tspan font-weight="600" fill="#c0b8b0">LLM</tspan>  →  Llama 3.1 8B Q4_K_M</text>
  <text x="56" y="460" fill="#8a8580" font-size="9">•</text>
  <text x="64" y="460" fill="#9a9590" font-size="9"><tspan font-weight="600" fill="#c0b8b0">STT</tspan>  →  Faster-Whisper local</text>
  <text x="56" y="480" fill="#8a8580" font-size="9">•</text>
  <text x="64" y="480" fill="#9a9590" font-size="9"><tspan font-weight="600" fill="#c0b8b0">TTS</tspan>  →  Azure Neural / ElevenLabs</text>

  <!-- Emotional State -->
  <rect x="270" y="382" width="210" height="130" rx="8" fill="url(#cardBg)" stroke="#2a2530" stroke-width="1"/>
  <circle cx="292" cy="404" r="14" fill="#50b8a0" opacity="0.15"/>
  <text x="292" y="409" text-anchor="middle" fill="#50b8a0" font-size="11" font-weight="700">E</text>
  <text x="314" y="401" fill="#e8e0d0" font-size="13" font-weight="600">Emotional State</text>
  <text x="314" y="415" fill="#6a6562" font-size="9">Mood-driven behavior</text>
  <rect x="430" y="391" width="38" height="18" rx="9" fill="#50b8a0" opacity="0.12"/>
  <text x="449" y="403" text-anchor="middle" fill="#50b8a0" font-size="8" font-weight="600">EMO</text>
  <text x="286" y="440" fill="#8a8580" font-size="9">•</text>
  <text x="294" y="440" fill="#9a9590" font-size="9">Emotion analyzer per turn</text>
  <text x="286" y="460" fill="#8a8580" font-size="9">•</text>
  <text x="294" y="460" fill="#9a9590" font-size="9">EmotionalState enum</text>
  <text x="286" y="480" fill="#8a8580" font-size="9">•</text>
  <text x="294" y="480" fill="#9a9590" font-size="9">Mood influences response style</text>

  <!-- Prompt System -->
  <rect x="500" y="382" width="210" height="130" rx="8" fill="url(#cardBg)" stroke="#2a2530" stroke-width="1"/>
  <circle cx="522" cy="404" r="14" fill="#e06850" opacity="0.15"/>
  <text x="522" y="409" text-anchor="middle" fill="#e06850" font-size="11" font-weight="700">P</text>
  <text x="544" y="401" fill="#e8e0d0" font-size="13" font-weight="600">Prompt System</text>
  <text x="544" y="415" fill="#6a6562" font-size="9">Identity + rules assembly</text>
  <text x="516" y="440" fill="#8a8580" font-size="9">•</text>
  <text x="524" y="440" fill="#9a9590" font-size="9"><tspan font-weight="600" fill="#c0b8b0">personality.txt</tspan>  →  identity</text>
  <text x="516" y="460" fill="#8a8580" font-size="9">•</text>
  <text x="524" y="460" fill="#9a9590" font-size="9"><tspan font-weight="600" fill="#c0b8b0">prompt_rules.py</tspan>  →  format</text>
  <text x="516" y="480" fill="#8a8580" font-size="9">•</text>
  <text x="524" y="480" fill="#9a9590" font-size="9"><tspan font-weight="600" fill="#c0b8b0">prompt_loader.py</tspan>  →  build</text>

  <!-- Proactive Agency -->
  <rect x="730" y="382" width="210" height="130" rx="8" fill="url(#cardBg)" stroke="#2a2530" stroke-width="1"/>
  <circle cx="752" cy="404" r="14" fill="#d4a843" opacity="0.15"/>
  <text x="752" y="409" text-anchor="middle" fill="#d4a843" font-size="11" font-weight="700">A</text>
  <text x="774" y="401" fill="#e8e0d0" font-size="13" font-weight="600">Proactive Agency</text>
  <text x="774" y="415" fill="#6a6562" font-size="9">Autonomous behavior loop</text>
  <rect x="900" y="391" width="32" height="18" rx="9" fill="#d4a843" opacity="0.12"/>
  <text x="916" y="403" text-anchor="middle" fill="#d4a843" font-size="8" font-weight="600">AI</text>
  <text x="746" y="440" fill="#8a8580" font-size="9">•</text>
  <text x="754" y="440" fill="#9a9590" font-size="9">Silence detection escalation</text>
  <text x="746" y="460" fill="#8a8580" font-size="9">•</text>
  <text x="754" y="460" fill="#9a9590" font-size="9">Check-in → provoke → chaos</text>
  <text x="746" y="480" fill="#8a8580" font-size="9">•</text>
  <text x="754" y="480" fill="#9a9590" font-size="9">Vision heartbeat comments</text>

  <!-- Connector -->
  <line x1="145" y1="512" x2="145" y2="540" stroke="#2a2530" stroke-width="1" stroke-dasharray="4,3"/>
  <rect x="56" y="522" width="178" height="22" rx="4" fill="#1a1a24" stroke="#2a2530" stroke-width="1"/>
  <text x="145" y="537" text-anchor="middle" fill="#6a6562" font-size="8" letter-spacing="2" font-weight="600">LOCAL INFERENCE</text>

  <line x1="480" y1="512" x2="480" y2="540" stroke="#2a2530" stroke-width="1" stroke-dasharray="4,3"/>
  <rect x="400" y="522" width="160" height="22" rx="4" fill="#1a1a24" stroke="#2a2530" stroke-width="1"/>
  <text x="480" y="537" text-anchor="middle" fill="#6a6562" font-size="8" letter-spacing="2" font-weight="600">PROMPT ASSEMBLY</text>

  <line x1="835" y1="512" x2="835" y2="540" stroke="#2a2530" stroke-width="1" stroke-dasharray="4,3"/>
  <rect x="755" y="522" width="160" height="22" rx="4" fill="#1a1a24" stroke="#2a2530" stroke-width="1"/>
  <text x="835" y="537" text-anchor="middle" fill="#6a6562" font-size="8" letter-spacing="2" font-weight="600">OBSERVER LOOP</text>

  <!-- ═══════════════════════════════════ MEMORY ═══════════════════════════════════ -->
  <text x="40" y="578" fill="#7a7572" font-size="10" letter-spacing="4" font-weight="600">MEMORY</text>
  <line x1="40" y1="585" x2="920" y2="585" stroke="#2a2530" stroke-width="0.5"/>

  <!-- ChromaDB -->
  <rect x="40" y="598" width="280" height="130" rx="8" fill="url(#cardBg)" stroke="#2a2530" stroke-width="1"/>
  <circle cx="62" cy="620" r="14" fill="#b070e0" opacity="0.15"/>
  <text x="62" y="625" text-anchor="middle" fill="#b070e0" font-size="11" font-weight="700">C</text>
  <text x="84" y="617" fill="#e8e0d0" font-size="13" font-weight="600">ChromaDB</text>
  <text x="84" y="631" fill="#6a6562" font-size="9">Vector database — semantic retrieval</text>
  <rect x="262" y="607" width="48" height="18" rx="9" fill="#b070e0" opacity="0.12"/>
  <text x="286" y="619" text-anchor="middle" fill="#b070e0" font-size="8" font-weight="600">EMBED</text>
  <text x="56" y="656" fill="#8a8580" font-size="9">•</text>
  <text x="64" y="656" fill="#9a9590" font-size="9">Sentence-transformer embeddings</text>
  <text x="56" y="676" fill="#8a8580" font-size="9">•</text>
  <text x="64" y="676" fill="#9a9590" font-size="9">Semantic search on stored facts</text>
  <text x="56" y="696" fill="#8a8580" font-size="9">•</text>
  <text x="64" y="696" fill="#9a9590" font-size="9">Relevant memories injected per prompt</text>

  <!-- Fact Extractor -->
  <rect x="340" y="598" width="280" height="130" rx="8" fill="url(#cardBg)" stroke="#2a2530" stroke-width="1"/>
  <circle cx="362" cy="620" r="14" fill="#50b8a0" opacity="0.15"/>
  <text x="362" y="625" text-anchor="middle" fill="#50b8a0" font-size="11" font-weight="700">F</text>
  <text x="384" y="617" fill="#e8e0d0" font-size="13" font-weight="600">Fact Extractor</text>
  <text x="384" y="631" fill="#6a6562" font-size="9">Durable knowledge distillation</text>
  <rect x="553" y="607" width="54" height="18" rx="9" fill="#50b8a0" opacity="0.12"/>
  <text x="580" y="619" text-anchor="middle" fill="#50b8a0" font-size="8" font-weight="600">FACTS</text>
  <text x="356" y="656" fill="#8a8580" font-size="9">•</text>
  <text x="364" y="656" fill="#9a9590" font-size="9">LLM distills facts from voice turns</text>
  <text x="356" y="676" fill="#8a8580" font-size="9">•</text>
  <text x="364" y="676" fill="#9a9590" font-size="9">"Jonny's fav anime is Steins;Gate"</text>
  <text x="356" y="696" fill="#8a8580" font-size="9">•</text>
  <text x="364" y="696" fill="#9a9590" font-size="9">Stores extracted facts → ChromaDB</text>

  <!-- Summarizer -->
  <rect x="640" y="598" width="280" height="130" rx="8" fill="url(#cardBg)" stroke="#2a2530" stroke-width="1"/>
  <circle cx="662" cy="620" r="14" fill="#e06850" opacity="0.15"/>
  <text x="662" y="625" text-anchor="middle" fill="#e06850" font-size="11" font-weight="700">S</text>
  <text x="684" y="617" fill="#e8e0d0" font-size="13" font-weight="600">Summarizer</text>
  <text x="684" y="631" fill="#6a6562" font-size="9">Conversation consolidation</text>
  <rect x="854" y="607" width="54" height="18" rx="9" fill="#e06850" opacity="0.12"/>
  <text x="881" y="619" text-anchor="middle" fill="#e06850" font-size="8" font-weight="600">RECAP</text>
  <text x="656" y="656" fill="#8a8580" font-size="9">•</text>
  <text x="664" y="656" fill="#9a9590" font-size="9">Periodic segment summaries</text>
  <text x="656" y="676" fill="#8a8580" font-size="9">•</text>
  <text x="664" y="676" fill="#9a9590" font-size="9">Compresses conversation history</text>
  <text x="656" y="696" fill="#8a8580" font-size="9">•</text>
  <text x="664" y="696" fill="#9a9590" font-size="9">Long-term persistence → ChromaDB</text>

  <!-- Connector -->
  <line x1="480" y1="728" x2="480" y2="756" stroke="#2a2530" stroke-width="1" stroke-dasharray="4,3"/>
  <rect x="398" y="738" width="164" height="22" rx="4" fill="#1a1a24" stroke="#2a2530" stroke-width="1"/>
  <text x="480" y="753" text-anchor="middle" fill="#6a6562" font-size="8" letter-spacing="2" font-weight="600">TOOL DISPATCH</text>

  <!-- ═══════════════════════════════════ TOOLS ═══════════════════════════════════ -->
  <text x="40" y="792" fill="#7a7572" font-size="10" letter-spacing="4" font-weight="600">TOOLS</text>
  <line x1="40" y1="799" x2="920" y2="799" stroke="#2a2530" stroke-width="0.5"/>

  <!-- Music -->
  <rect x="40" y="812" width="280" height="120" rx="8" fill="url(#cardBg)" stroke="#2a2530" stroke-width="1"/>
  <circle cx="62" cy="834" r="14" fill="#e06850" opacity="0.15"/>
  <text x="62" y="839" text-anchor="middle" fill="#e06850" font-size="11" font-weight="700">M</text>
  <text x="84" y="831" fill="#e8e0d0" font-size="13" font-weight="600">Music Tools</text>
  <text x="84" y="845" fill="#6a6562" font-size="9">YouTube search + streaming</text>
  <rect x="252" y="821" width="56" height="18" rx="9" fill="#e06850" opacity="0.12"/>
  <text x="280" y="833" text-anchor="middle" fill="#e06850" font-size="8" font-weight="600">AUDIO</text>
  <text x="56" y="870" fill="#8a8580" font-size="9">•</text>
  <text x="64" y="870" fill="#9a9590" font-size="9"><tspan font-weight="600" fill="#c0b8b0">yt-dlp</tspan>  →  YouTube search</text>
  <text x="56" y="890" fill="#8a8580" font-size="9">•</text>
  <text x="64" y="890" fill="#9a9590" font-size="9"><tspan font-weight="600" fill="#c0b8b0">mpv</tspan>  →  audio streaming</text>
  <text x="56" y="910" fill="#8a8580" font-size="9">•</text>
  <text x="64" y="910" fill="#9a9590" font-size="9">Natural language song requests</text>

  <!-- Web Search -->
  <rect x="340" y="812" width="280" height="120" rx="8" fill="url(#cardBg)" stroke="#2a2530" stroke-width="1"/>
  <circle cx="362" cy="834" r="14" fill="#4285f4" opacity="0.2"/>
  <text x="362" y="839" text-anchor="middle" fill="#4285f4" font-size="11" font-weight="700">W</text>
  <text x="384" y="831" fill="#e8e0d0" font-size="13" font-weight="600">Web Search</text>
  <text x="384" y="845" fill="#6a6562" font-size="9">Autonomous knowledge lookup</text>
  <rect x="554" y="821" width="54" height="18" rx="9" fill="#4285f4" opacity="0.12"/>
  <text x="581" y="833" text-anchor="middle" fill="#4285f4" font-size="8" font-weight="600">GCSE</text>
  <text x="356" y="870" fill="#8a8580" font-size="9">•</text>
  <text x="364" y="870" fill="#9a9590" font-size="9">Google Custom Search API</text>
  <text x="356" y="890" fill="#8a8580" font-size="9">•</text>
  <text x="364" y="890" fill="#9a9590" font-size="9">Auto-triggers when knowledge gaps</text>
  <text x="356" y="910" fill="#8a8580" font-size="9">•</text>
  <text x="364" y="910" fill="#9a9590" font-size="9">Results injected into context</text>

  <!-- Twitch Tools -->
  <rect x="640" y="812" width="280" height="120" rx="8" fill="url(#cardBg)" stroke="#2a2530" stroke-width="1"/>
  <circle cx="662" cy="834" r="14" fill="#9146ff" opacity="0.2"/>
  <text x="662" y="839" text-anchor="middle" fill="#9146ff" font-size="11" font-weight="700">T</text>
  <text x="684" y="831" fill="#e8e0d0" font-size="13" font-weight="600">Twitch Tools</text>
  <text x="684" y="845" fill="#6a6562" font-size="9">Platform API utilities</text>
  <rect x="854" y="821" width="54" height="18" rx="9" fill="#9146ff" opacity="0.12"/>
  <text x="881" y="833" text-anchor="middle" fill="#9146ff" font-size="8" font-weight="600">API</text>
  <text x="656" y="870" fill="#8a8580" font-size="9">•</text>
  <text x="664" y="870" fill="#9a9590" font-size="9">Poll creation + management</text>
  <text x="656" y="890" fill="#8a8580" font-size="9">•</text>
  <text x="664" y="890" fill="#9a9590" font-size="9">Broadcaster utilities</text>
  <text x="656" y="910" fill="#8a8580" font-size="9">•</text>
  <text x="664" y="910" fill="#9a9590" font-size="9">Song request handler via twitchio</text>

  <!-- Connector -->
  <line x1="480" y1="932" x2="480" y2="960" stroke="#2a2530" stroke-width="1" stroke-dasharray="4,3"/>
  <rect x="388" y="942" width="184" height="22" rx="4" fill="#1a1a24" stroke="#2a2530" stroke-width="1"/>
  <text x="480" y="957" text-anchor="middle" fill="#6a6562" font-size="8" letter-spacing="2" font-weight="600">LOCAL + API SERVICES</text>

  <!-- ═══════════════════════════════════ INFRASTRUCTURE ═══════════════════════════════════ -->
  <text x="40" y="998" fill="#7a7572" font-size="10" letter-spacing="4" font-weight="600">INFRASTRUCTURE</text>
  <line x1="40" y1="1005" x2="920" y2="1005" stroke="#2a2530" stroke-width="0.5"/>

  <!-- Llama 3.1 -->
  <rect x="40" y="1018" width="210" height="120" rx="8" fill="url(#cardBg)" stroke="#2a2530" stroke-width="1"/>
  <circle cx="62" cy="1040" r="14" fill="#b070e0" opacity="0.15"/>
  <text x="62" y="1045" text-anchor="middle" fill="#b070e0" font-size="11" font-weight="700">L</text>
  <text x="84" y="1037" fill="#e8e0d0" font-size="13" font-weight="600">Llama 3.1</text>
  <text x="84" y="1051" fill="#6a6562" font-size="9">Local LLM inference</text>
  <rect x="178" y="1027" width="60" height="18" rx="9" fill="#b070e0" opacity="0.12"/>
  <text x="208" y="1039" text-anchor="middle" fill="#b070e0" font-size="8" font-weight="600">LOCAL</text>
  <text x="56" y="1076" fill="#8a8580" font-size="9">•</text>
  <text x="64" y="1076" fill="#9a9590" font-size="9">8B params, Q4_K_M quantized</text>
  <text x="56" y="1096" fill="#8a8580" font-size="9">•</text>
  <text x="64" y="1096" fill="#9a9590" font-size="9">llama-cpp-python + Flash Attn</text>
  <text x="56" y="1116" fill="#8a8580" font-size="9">•</text>
  <text x="64" y="1116" fill="#9a9590" font-size="9">RTX 3060+ / CUDA required</text>

  <!-- Faster-Whisper -->
  <rect x="270" y="1018" width="210" height="120" rx="8" fill="url(#cardBg)" stroke="#2a2530" stroke-width="1"/>
  <circle cx="292" cy="1040" r="14" fill="#50b8a0" opacity="0.15"/>
  <text x="292" y="1045" text-anchor="middle" fill="#50b8a0" font-size="11" font-weight="700">W</text>
  <text x="314" y="1037" fill="#e8e0d0" font-size="13" font-weight="600">Faster-Whisper</text>
  <text x="314" y="1051" fill="#6a6562" font-size="9">Speech-to-text</text>
  <rect x="418" y="1027" width="48" height="18" rx="9" fill="#50b8a0" opacity="0.12"/>
  <text x="442" y="1039" text-anchor="middle" fill="#50b8a0" font-size="8" font-weight="600">STT</text>
  <text x="286" y="1076" fill="#8a8580" font-size="9">•</text>
  <text x="294" y="1076" fill="#9a9590" font-size="9">Local CTranslate2 inference</text>
  <text x="286" y="1096" fill="#8a8580" font-size="9">•</text>
  <text x="294" y="1096" fill="#9a9590" font-size="9">WebRTC VAD preprocessing</text>
  <text x="286" y="1116" fill="#8a8580" font-size="9">•</text>
  <text x="294" y="1116" fill="#9a9590" font-size="9">Real-time transcription</text>

  <!-- Azure TTS -->
  <rect x="500" y="1018" width="210" height="120" rx="8" fill="url(#cardBg)" stroke="#2a2530" stroke-width="1"/>
  <circle cx="522" cy="1040" r="14" fill="#0078d4" opacity="0.2"/>
  <text x="522" y="1045" text-anchor="middle" fill="#0078d4" font-size="11" font-weight="700">A</text>
  <text x="544" y="1037" fill="#e8e0d0" font-size="13" font-weight="600">Azure TTS</text>
  <text x="544" y="1051" fill="#6a6562" font-size="9">Neural text-to-speech</text>
  <rect x="640" y="1027" width="56" height="18" rx="9" fill="#0078d4" opacity="0.12"/>
  <text x="668" y="1039" text-anchor="middle" fill="#0078d4" font-size="8" font-weight="600">VOICE</text>
  <text x="516" y="1076" fill="#8a8580" font-size="9">•</text>
  <text x="524" y="1076" fill="#9a9590" font-size="9">Azure Cognitive Services</text>
  <text x="516" y="1096" fill="#8a8580" font-size="9">•</text>
  <text x="524" y="1096" fill="#9a9590" font-size="9">ElevenLabs fallback</text>
  <text x="516" y="1116" fill="#8a8580" font-size="9">•</text>
  <text x="524" y="1116" fill="#9a9590" font-size="9">Rate limiting + queue</text>

  <!-- GPT-4o-mini Vision -->
  <rect x="730" y="1018" width="210" height="120" rx="8" fill="url(#cardBg)" stroke="#2a2530" stroke-width="1"/>
  <circle cx="752" cy="1040" r="14" fill="#10a37f" opacity="0.2"/>
  <text x="752" y="1045" text-anchor="middle" fill="#10a37f" font-size="11" font-weight="700">O</text>
  <text x="774" y="1037" fill="#e8e0d0" font-size="13" font-weight="600">GPT-4o-mini</text>
  <text x="774" y="1051" fill="#6a6562" font-size="9">Vision LLM</text>
  <rect x="878" y="1027" width="52" height="18" rx="9" fill="#10a37f" opacity="0.12"/>
  <text x="904" y="1039" text-anchor="middle" fill="#10a37f" font-size="8" font-weight="600">VLM</text>
  <text x="746" y="1076" fill="#8a8580" font-size="9">•</text>
  <text x="754" y="1076" fill="#9a9590" font-size="9">Screen description via API</text>
  <text x="746" y="1096" fill="#8a8580" font-size="9">•</text>
  <text x="754" y="1096" fill="#9a9590" font-size="9">Scene understanding context</text>
  <text x="746" y="1116" fill="#8a8580" font-size="9">•</text>
  <text x="754" y="1116" fill="#9a9590" font-size="9">Multimodal perception input</text>

  <!-- ═══════════════════════════════════ TECH STACK FOOTER ═══════════════════════════════════ -->
  <!-- Row 1 -->
  <rect x="46" y="1178" width="78" height="26" rx="4" fill="#1a1a24" stroke="#b070e0" stroke-width="0.8"/>
  <text x="85" y="1195" text-anchor="middle" fill="#b070e0" font-size="9" font-weight="600">Python 3.10+</text>

  <rect x="134" y="1178" width="96" height="26" rx="4" fill="#1a1a24" stroke="#50b8a0" stroke-width="0.8"/>
  <text x="182" y="1195" text-anchor="middle" fill="#50b8a0" font-size="9" font-weight="600">llama-cpp-python</text>

  <rect x="240" y="1178" width="96" height="26" rx="4" fill="#1a1a24" stroke="#e06850" stroke-width="0.8"/>
  <text x="288" y="1195" text-anchor="middle" fill="#e06850" font-size="9" font-weight="600">Faster-Whisper</text>

  <rect x="346" y="1178" width="78" height="26" rx="4" fill="#1a1a24" stroke="#0078d4" stroke-width="0.8"/>
  <text x="385" y="1195" text-anchor="middle" fill="#0078d4" font-size="9" font-weight="600">Azure TTS</text>

  <rect x="434" y="1178" width="78" height="26" rx="4" fill="#1a1a24" stroke="#10a37f" stroke-width="0.8"/>
  <text x="473" y="1195" text-anchor="middle" fill="#10a37f" font-size="9" font-weight="600">GPT-4o-mini</text>

  <rect x="522" y="1178" width="78" height="26" rx="4" fill="#1a1a24" stroke="#d4a843" stroke-width="0.8"/>
  <text x="561" y="1195" text-anchor="middle" fill="#d4a843" font-size="9" font-weight="600">ChromaDB</text>

  <rect x="610" y="1178" width="78" height="26" rx="4" fill="#1a1a24" stroke="#4285f4" stroke-width="0.8"/>
  <text x="649" y="1195" text-anchor="middle" fill="#4285f4" font-size="9" font-weight="600">Google CSE</text>

  <rect x="698" y="1178" width="78" height="26" rx="4" fill="#1a1a24" stroke="#9146ff" stroke-width="0.8"/>
  <text x="737" y="1195" text-anchor="middle" fill="#9146ff" font-size="9" font-weight="600">twitchio</text>

  <rect x="786" y="1178" width="78" height="26" rx="4" fill="#1a1a24" stroke="#e8e0d0" stroke-width="0.8" stroke-opacity="0.3"/>
  <text x="825" y="1195" text-anchor="middle" fill="#8a8580" font-size="9" font-weight="600">WebRTC VAD</text>

  <!-- Row 2 -->
  <rect x="240" y="1214" width="78" height="26" rx="4" fill="#1a1a24" stroke="#e8e0d0" stroke-width="0.8" stroke-opacity="0.3"/>
  <text x="279" y="1231" text-anchor="middle" fill="#8a8580" font-size="9" font-weight="600">PyAudio</text>

  <rect x="328" y="1214" width="78" height="26" rx="4" fill="#1a1a24" stroke="#e8e0d0" stroke-width="0.8" stroke-opacity="0.3"/>
  <text x="367" y="1231" text-anchor="middle" fill="#8a8580" font-size="9" font-weight="600">Pillow</text>

  <rect x="416" y="1214" width="78" height="26" rx="4" fill="#1a1a24" stroke="#e06850" stroke-width="0.8"/>
  <text x="455" y="1231" text-anchor="middle" fill="#e06850" font-size="9" font-weight="600">yt-dlp</text>

  <rect x="504" y="1214" width="78" height="26" rx="4" fill="#1a1a24" stroke="#e8e0d0" stroke-width="0.8" stroke-opacity="0.3"/>
  <text x="543" y="1231" text-anchor="middle" fill="#8a8580" font-size="9" font-weight="600">mpv</text>

  <rect x="592" y="1214" width="96" height="26" rx="4" fill="#1a1a24" stroke="#d4a843" stroke-width="0.8"/>
  <text x="640" y="1231" text-anchor="middle" fill="#d4a843" font-size="9" font-weight="600">customtkinter</text>

</svg>
